<?xml version="1.0" encoding="iso-8859-1"?>
<!-- Uploaded to: SVG Repo, www.svgrepo.com, Generator: SVG Repo Mixer Tools -->
<svg height="800px" width="800px" version="1.1" id="Layer_1" xmlns="http://www.w3.org/2000/svg" xmlns:xlink="http://www.w3.org/1999/xlink" 
	 viewBox="0 0 512 512" xml:space="preserve">
<g transform="translate(1 1)">
	<path style="fill:#63D3FD;" d="M266.947,502.467h-23.893c-11.947,0-20.48-10.24-19.627-22.187l12.8-88.747
		c1.707-9.387,9.387-17.067,19.627-17.067c9.387,0,17.92,6.827,19.627,17.067l11.947,88.747
		C288.28,492.227,278.893,502.467,266.947,502.467"/>
	<g>
		<path style="fill:#FFE100;" d="M63.853,85.187c-4.267,0-7.68-3.413-8.533-7.68c-0.853-8.533-1.707-17.92-2.56-26.453
			c0-5.12,3.413-8.533,7.68-9.387c4.267,0,8.533,3.413,9.387,7.68c0.853,8.533,1.707,17.067,2.56,25.6
			c0.853,5.12-2.56,9.387-6.827,9.387C64.707,84.333,64.707,85.187,63.853,85.187z"/>
		<path style="fill:#FFE100;" d="M82.627,163.693c-3.413,0-6.827-2.56-7.68-5.973c-3.413-9.387-5.973-19.627-8.533-29.867
			c-1.707-3.413,0.853-8.533,5.12-9.387c4.267-0.853,9.387,1.707,10.24,5.973c2.56,9.387,5.12,18.773,8.533,28.16
			c1.707,4.267-0.853,9.387-5.12,11.093C84.333,163.693,83.48,163.693,82.627,163.693z"/>
		<path style="fill:#FFE100;" d="M115.053,233.667c-2.56,0-5.973-1.707-7.68-4.267c-4.267-6.827-8.533-14.507-12.8-23.04
			c-1.707-4.267,0-9.387,4.267-11.093c4.267-2.56,9.387-0.853,11.093,3.413c3.413,7.68,7.68,14.507,11.947,21.333
			c2.56,4.267,0.853,9.387-2.56,11.947C117.613,232.813,116.76,233.667,115.053,233.667z"/>
		<path style="fill:#FFE100;" d="M166.253,293.4c-1.707,0-4.267-0.853-5.12-1.707c-7.68-5.973-14.507-12.8-21.333-20.48
			c-3.413-3.413-3.413-8.533,0.853-11.947c3.413-3.413,8.533-3.413,11.947,0.853c5.973,6.827,12.8,12.8,19.627,18.773
			c3.413,3.413,4.267,8.533,0.853,11.947C170.52,292.547,168.813,293.4,166.253,293.4z"/>
		<path style="fill:#FFE100;" d="M239.64,329.24c-0.853,0-0.853,0-1.707,0c-11.093-1.707-21.333-5.12-31.573-9.387
			c-4.267-1.707-5.973-6.827-4.267-11.093s6.827-5.973,11.093-4.267c9.387,4.267,18.773,6.827,28.16,8.533
			c4.267,0.853,7.68,5.12,6.827,10.24C247.32,326.68,243.907,329.24,239.64,329.24z"/>
		<path style="fill:#FFE100;" d="M290.84,329.24c-4.267,0-7.68-2.56-8.533-6.827c-0.853-4.267,2.56-9.387,6.827-10.24
			c9.387-1.707,18.773-4.267,28.16-8.533c4.267-1.707,9.387,0,11.093,4.267c1.707,4.267,0,9.387-4.267,11.093
			c-10.24,4.267-21.333,7.68-31.573,9.387C291.693,329.24,290.84,329.24,290.84,329.24z"/>
		<path style="fill:#FFE100;" d="M364.227,293.4c-2.56,0-5.12-0.853-6.827-3.413c-3.413-3.413-2.56-9.387,0.853-11.947
			c6.827-5.973,13.653-11.947,19.627-18.773c3.413-3.413,8.533-3.413,11.947-0.853c3.413,2.56,3.413,8.533,0.853,11.947
			c-6.827,7.68-13.653,14.507-21.333,20.48C367.64,292.547,365.933,293.4,364.227,293.4z"/>
		<path style="fill:#FFE100;" d="M415.427,233.667c-1.707,0-3.413,0-4.267-0.853c-4.267-2.56-5.12-7.68-2.56-11.947
			c4.267-6.827,8.533-14.507,11.947-21.333c2.56-4.267,6.827-5.973,11.093-3.413c4.267,2.56,5.973,7.68,3.413,11.093
			c-4.267,7.68-8.533,15.36-12.8,23.04C421.4,231.96,417.987,233.667,415.427,233.667z"/>
		<path style="fill:#FFE100;" d="M447.853,163.693c-0.853,0-1.707,0-2.56-0.853c-4.267-1.707-6.827-5.973-5.12-11.093
			c3.413-9.387,5.973-18.773,8.533-28.16c0.853-4.267,5.973-7.68,10.24-5.973c4.267,0.853,7.68,5.973,5.973,10.24
			c-2.56,10.24-5.973,19.627-8.533,29.867C454.68,161.987,451.267,163.693,447.853,163.693z"/>
		<path style="fill:#FFE100;" d="M465.773,85.187h-0.853c-5.12-0.853-7.68-5.12-7.68-10.24c0.853-8.533,1.707-17.067,2.56-25.6
			c0-5.12,4.267-8.533,9.387-7.68c5.12,0,8.533,4.267,7.68,9.387c-0.853,8.533-1.707,17.92-2.56,26.453
			C473.453,81.773,470.04,85.187,465.773,85.187z"/>
		<path style="fill:#FFE100;" d="M280.6,314.733c0,14.507-11.093,25.6-25.6,25.6c-14.507,0-25.6-11.093-25.6-25.6
			c0-14.507,11.093-25.6,25.6-25.6C269.507,289.133,280.6,300.227,280.6,314.733"/>
		<path style="fill:#FFE100;" d="M357.4,289.133c0,14.507-11.093,25.6-25.6,25.6s-25.6-11.093-25.6-25.6
			c0-14.507,11.093-25.6,25.6-25.6S357.4,274.627,357.4,289.133"/>
		<path style="fill:#FFE100;" d="M417.133,237.933c0,14.507-11.093,25.6-25.6,25.6s-25.6-11.093-25.6-25.6
			c0-14.507,11.093-25.6,25.6-25.6S417.133,223.427,417.133,237.933"/>
		<path style="fill:#FFE100;" d="M451.267,169.667c0,14.507-11.093,25.6-25.6,25.6s-25.6-11.093-25.6-25.6
			c0-14.507,11.093-25.6,25.6-25.6S451.267,155.16,451.267,169.667"/>
		<path style="fill:#FFE100;" d="M476.867,92.867c0,14.507-11.093,25.6-25.6,25.6s-25.6-11.093-25.6-25.6s11.093-25.6,25.6-25.6
			S476.867,78.36,476.867,92.867"/>
		<path style="fill:#FFE100;" d="M484.547,7.533c0.853,2.56,0.853,5.973,0.853,8.533c0,14.507-11.093,25.6-25.6,25.6
			s-25.6-11.093-25.6-25.6c0-3.413,0.853-5.973,1.707-8.533H484.547z"/>
		<path style="fill:#FFE100;" d="M152.6,289.133c0,14.507,11.093,25.6,25.6,25.6c14.507,0,25.6-11.093,25.6-25.6
			c0-14.507-11.093-25.6-25.6-25.6C164.547,263.533,152.6,274.627,152.6,289.133"/>
		<path style="fill:#FFE100;" d="M92.867,237.933c0,14.507,11.093,25.6,25.6,25.6s25.6-11.093,25.6-25.6
			c0-14.507-11.093-25.6-25.6-25.6S92.867,223.427,92.867,237.933"/>
		<path style="fill:#FFE100;" d="M58.733,169.667c0,14.507,11.093,25.6,25.6,25.6s25.6-11.093,25.6-25.6
			c0-14.507-11.093-25.6-25.6-25.6S58.733,155.16,58.733,169.667"/>
		<path style="fill:#FFE100;" d="M33.133,92.867c0,14.507,11.093,25.6,25.6,25.6s25.6-11.093,25.6-25.6s-11.093-25.6-25.6-25.6
			S33.133,78.36,33.133,92.867"/>
		<path style="fill:#FFE100;" d="M26.307,7.533c-0.853,2.56-1.707,5.973-1.707,8.533c0,14.507,11.093,25.6,25.6,25.6
			s25.6-11.093,25.6-25.6c0-3.413,0-5.973-0.853-8.533H26.307z"/>
	</g>
	<path d="M54.467,75.8c-4.267,0-7.68-2.56-8.533-6.827c-0.853-8.533-1.707-17.92-2.56-26.453c0-5.12,3.413-8.533,7.68-9.387
		s8.533,3.413,9.387,7.68c0.853,8.533,1.707,17.067,2.56,25.6c0.853,5.12-2.56,9.387-7.68,9.387H54.467z"/>
	<path d="M72.387,155.16c-3.413,0-6.827-2.56-7.68-5.973c-3.413-9.387-5.973-19.627-8.533-29.867
		c-0.853-4.267,1.707-9.387,5.973-10.24c4.267-0.853,9.387,1.707,10.24,5.973c2.56,9.387,5.12,19.627,8.533,28.16
		c1.707,4.267-0.853,9.387-5.12,11.093C74.947,155.16,74.093,155.16,72.387,155.16z"/>
	<path d="M104.813,225.133c-2.56,0-5.973-1.707-7.68-4.267c-4.267-7.68-8.533-15.36-12.8-23.04c-1.707-4.267,0-9.387,4.267-11.093
		c4.267-2.56,9.387-0.853,11.093,3.413c3.413,7.68,7.68,14.507,11.947,21.333c2.56,4.267,0.853,9.387-2.56,11.947
		C108.227,224.28,106.52,225.133,104.813,225.133z"/>
	<path d="M156.013,284.867c-1.707,0-4.267-0.853-5.12-1.707c-7.68-5.973-14.507-12.8-21.333-20.48
		c-3.413-3.413-3.413-8.533,0.853-11.947c3.413-3.413,8.533-3.413,11.947,0.853c5.973,6.827,12.8,12.8,19.627,18.773
		c3.413,3.413,4.267,8.533,0.853,11.947C161.133,284.013,158.573,284.867,156.013,284.867z"/>
	<path d="M230.253,320.707c-0.853,0-0.853,0-1.707,0c-11.093-1.707-21.333-5.12-31.573-9.387c-4.267-1.707-5.973-6.827-4.267-11.093
		c1.707-4.267,6.827-5.973,11.093-4.267c9.387,4.267,18.773,6.827,28.16,8.533c4.267,0.853,7.68,5.12,6.827,10.24
		C237.08,318.147,233.667,320.707,230.253,320.707z"/>
	<path d="M280.6,320.707c-4.267,0-7.68-2.56-8.533-6.827s2.56-9.387,6.827-10.24c9.387-1.707,18.773-4.267,28.16-8.533
		c4.267-1.707,9.387,0,11.093,4.267s0,9.387-4.267,11.093c-10.24,4.267-21.333,7.68-31.573,9.387
		C281.453,320.707,281.453,320.707,280.6,320.707z"/>
	<path d="M353.987,284.867c-2.56,0-5.12-0.853-6.827-3.413c-3.413-3.413-2.56-9.387,0.853-11.947
		c6.827-5.973,13.653-11.947,19.627-18.773c3.413-3.413,8.533-3.413,11.947-0.853c3.413,2.56,3.413,8.533,0.853,11.947
		c-6.827,7.68-13.653,14.507-21.333,20.48C358.253,284.013,356.547,284.867,353.987,284.867z"/>
	<path d="M405.187,225.133c-1.707,0-3.413,0-4.267-0.853c-4.267-2.56-5.12-7.68-2.56-11.947c4.267-6.827,8.533-14.507,11.947-21.333
		c2.56-4.267,7.68-5.973,11.093-3.413c4.267,2.56,5.973,7.68,3.413,11.093c-4.267,7.68-8.533,15.36-12.8,23.04
		C411.16,223.427,408.6,225.133,405.187,225.133z"/>
	<path d="M437.613,155.16c-0.853,0-1.707,0-2.56-0.853c-4.267-1.707-6.827-5.973-5.12-11.093c3.413-9.387,5.973-18.773,8.533-28.16
		c0.853-4.267,5.973-7.68,10.24-5.973c4.267,0.853,7.68,5.973,5.973,10.24c-2.56,10.24-5.973,20.48-8.533,29.867
		C444.44,153.453,441.027,155.16,437.613,155.16z"/>
	<path d="M456.387,75.8h-0.853c-4.267-0.853-7.68-5.12-7.68-9.387c0.853-8.533,1.707-17.067,2.56-25.6
		c0-5.12,4.267-8.533,9.387-7.68c5.12,0,8.533,4.267,7.68,9.387c-0.853,8.533-1.707,17.92-2.56,26.453
		C464.067,73.24,460.653,75.8,456.387,75.8z"/>
	<path d="M255,348.867c-18.773,0-34.133-15.36-34.133-34.133c0-18.773,15.36-34.133,34.133-34.133s34.133,15.36,34.133,34.133
		C289.133,333.507,273.773,348.867,255,348.867z M255,297.667c-9.387,0-17.067,7.68-17.067,17.067
		c0,9.387,7.68,17.067,17.067,17.067s17.067-7.68,17.067-17.067C272.067,305.347,264.387,297.667,255,297.667z"/>
	<path d="M331.8,323.267c-18.773,0-34.133-15.36-34.133-34.133c0-18.773,15.36-34.133,34.133-34.133s34.133,15.36,34.133,34.133
		C365.933,307.907,350.573,323.267,331.8,323.267z M331.8,272.067c-9.387,0-17.067,7.68-17.067,17.067
		c0,9.387,7.68,17.067,17.067,17.067s17.067-7.68,17.067-17.067C348.867,279.747,341.187,272.067,331.8,272.067z"/>
	<path d="M391.533,272.067c-18.773,0-34.133-15.36-34.133-34.133s15.36-34.133,34.133-34.133s34.133,15.36,34.133,34.133
		S410.307,272.067,391.533,272.067z M391.533,220.867c-9.387,0-17.067,7.68-17.067,17.067S382.147,255,391.533,255
		s17.067-7.68,17.067-17.067S400.92,220.867,391.533,220.867z"/>
	<path d="M425.667,203.8c-18.773,0-34.133-15.36-34.133-34.133s15.36-34.133,34.133-34.133s34.133,15.36,34.133,34.133
		S444.44,203.8,425.667,203.8z M425.667,152.6c-9.387,0-17.067,7.68-17.067,17.067s7.68,17.067,17.067,17.067
		s17.067-7.68,17.067-17.067S435.053,152.6,425.667,152.6z"/>
	<path d="M451.267,127c-18.773,0-34.133-15.36-34.133-34.133s15.36-34.133,34.133-34.133S485.4,74.093,485.4,92.867
		S470.04,127,451.267,127z M451.267,75.8c-9.387,0-17.067,7.68-17.067,17.067s7.68,17.067,17.067,17.067s17.067-7.68,17.067-17.067
		S460.653,75.8,451.267,75.8z"/>
	<path d="M459.8,50.2c-18.773,0-34.133-15.36-34.133-34.133c0-4.267,0.853-7.68,1.707-11.093C429.08,1.56,432.493-1,435.907-1l0,0
		h48.64c3.413,0,6.827,2.56,7.68,5.973c1.707,3.413,1.707,6.827,1.707,11.093C493.933,34.84,478.573,50.2,459.8,50.2z
		 M442.733,16.067c0,9.387,7.68,17.067,17.067,17.067s17.067-7.68,17.067-17.067H442.733z"/>
	<path d="M178.2,323.267c-18.773,0-34.133-15.36-34.133-34.133c0-18.773,15.36-34.133,34.133-34.133s34.133,15.36,34.133,34.133
		C212.333,307.907,196.973,323.267,178.2,323.267z M178.2,272.067c-9.387,0-17.067,7.68-17.067,17.067
		c0,9.387,7.68,17.067,17.067,17.067s17.067-7.68,17.067-17.067C195.267,279.747,187.587,272.067,178.2,272.067z"/>
	<path d="M118.467,272.067c-18.773,0-34.133-15.36-34.133-34.133s15.36-34.133,34.133-34.133s34.133,15.36,34.133,34.133
		S137.24,272.067,118.467,272.067z M118.467,220.867c-9.387,0-17.067,7.68-17.067,17.067S109.08,255,118.467,255
		s17.067-7.68,17.067-17.067S127.853,220.867,118.467,220.867z"/>
	<path d="M84.333,203.8c-18.773,0-34.133-15.36-34.133-34.133s15.36-34.133,34.133-34.133s34.133,15.36,34.133,34.133
		S103.107,203.8,84.333,203.8z M84.333,152.6c-9.387,0-17.067,7.68-17.067,17.067s7.68,17.067,17.067,17.067
		s17.067-7.68,17.067-17.067S93.72,152.6,84.333,152.6z"/>
	<path d="M58.733,127C39.96,127,24.6,111.64,24.6,92.867s15.36-34.133,34.133-34.133s34.133,15.36,34.133,34.133
		S77.507,127,58.733,127z M58.733,75.8c-9.387,0-17.067,7.68-17.067,17.067s7.68,17.067,17.067,17.067S75.8,102.253,75.8,92.867
		S68.12,75.8,58.733,75.8z"/>
	<path d="M50.2,50.2c-18.773,0-34.133-15.36-34.133-34.133c0-4.267,0.853-7.68,1.707-11.093C19.48,1.56,22.893-1,26.307-1h48.64l0,0
		c3.413,0,6.827,2.56,7.68,5.973c1.707,3.413,1.707,6.827,1.707,11.093C84.333,34.84,68.973,50.2,50.2,50.2z M33.133,16.067
		c0,9.387,7.68,17.067,17.067,17.067s17.067-7.68,17.067-17.067H33.133z"/>
	<path d="M255,383c-5.12,0-8.533-3.413-8.533-8.533v-34.133c0-5.12,3.413-8.533,8.533-8.533s8.533,3.413,8.533,8.533v34.133
		C263.533,379.587,260.12,383,255,383z"/>
	<path d="M266.947,511h-23.893c-7.68,0-15.36-3.413-21.333-9.387c-5.12-5.973-7.68-14.507-6.827-22.187l11.947-88.747
		c2.56-14.507,14.507-24.747,28.16-24.747s25.6,10.24,28.16,24.747l11.947,88.747c0.853,7.68-1.707,16.213-6.827,22.187
		S275.48,511,266.947,511z M255,383c-5.12,0-10.24,4.267-11.093,9.387l-11.947,88.747c0,3.413,0.853,5.973,2.56,8.533
		s5.12,3.413,8.533,3.413h23.893c3.413,0,5.973-1.707,8.533-3.413c1.707-2.56,3.413-5.12,2.56-8.533l-11.947-88.747
		C265.24,387.267,260.973,383,255,383z"/>
</g>
</svg>