<?xml version="1.0" encoding="UTF-8"?>
<svg version="1.1" xmlns="http://www.w3.org/2000/svg" width="512" height="512">
<path d="M0 0 C0.71417084 -0.00671722 1.42834167 -0.01343445 2.16415405 -0.02035522 C4.52633614 -0.03936114 6.88823447 -0.04326076 9.25048828 -0.04541016 C10.89332191 -0.05183659 12.53615438 -0.05856483 14.1789856 -0.06558228 C17.62390801 -0.07756172 21.0687301 -0.08126245 24.51367188 -0.08007812 C28.92450522 -0.07987496 33.33469405 -0.10717068 37.74537468 -0.14162254 C41.13920028 -0.16387912 44.53287052 -0.16791605 47.92676163 -0.16685867 C49.55264633 -0.16921676 51.17853519 -0.17805202 52.80434799 -0.19352341 C55.08095939 -0.21315806 57.35617785 -0.2073565 59.6328125 -0.1953125 C61.57448807 -0.19958755 61.57448807 -0.19958755 63.5553894 -0.20394897 C68.56321925 0.52642059 70.83785152 2.9550338 73.98095703 6.74365234 C74.64998047 7.66662109 75.31900391 8.58958984 76.00830078 9.54052734 C76.77142578 10.58982422 77.53455078 11.63912109 78.32080078 12.72021484 C78.94148438 13.57437988 78.94148438 13.57437988 79.57470703 14.44580078 C81.07838631 16.46891342 82.63188133 18.44646508 84.19580078 20.42333984 C84.74486084 21.1268457 85.2939209 21.83035156 85.85961914 22.55517578 C86.94089774 23.939238 88.0325684 25.31525736 89.13549805 26.68212891 C91.47476379 29.71089047 92.84143357 31.63702804 93.45361328 35.47021484 C92.88748938 38.61437987 92.04246428 40.39668215 90.25830078 43.04052734 C89.61634766 43.99572266 88.97439453 44.95091797 88.31298828 45.93505859 C84.43445021 51.47366478 80.45637525 56.94135592 76.47705078 62.40771484 C72.88855562 67.34987012 69.37791174 72.34419792 65.88330078 77.35302734 C65.01958862 78.59088989 65.01958862 78.59088989 64.13842773 79.85375977 C62.98517494 81.50666351 61.83193592 83.15957685 60.67871094 84.8125 C57.82206706 88.8974444 54.94723251 92.96950252 52.07080078 97.04052734 C51.55251709 97.77408447 51.0342334 98.5076416 50.50024414 99.26342773 C49.31576039 100.93936138 48.13083574 102.61498341 46.94580078 104.29052734 C48.19232422 104.50966797 49.43884766 104.72880859 50.72314453 104.95458984 C77.71293926 109.895782 100.99596454 120.36470021 121.94580078 138.29052734 C122.72955078 138.93892578 123.51330078 139.58732422 124.32080078 140.25537109 C130.3134885 145.34291327 135.16073075 151.06993631 139.94580078 157.29052734 C140.62642578 158.16708984 141.30705078 159.04365234 142.00830078 159.94677734 C164.51679691 189.84087376 173.05362885 227.18041641 168.125 264.15625 C163.51939308 293.31691697 150.09775742 318.93652416 129.94580078 340.29052734 C129.27291016 341.02787109 128.60001953 341.76521484 127.90673828 342.52490234 C104.59304059 367.14835833 69.26693641 381.51269441 35.65283203 382.47412109 C-3.44835551 383.14932723 -39.41733005 370.00423864 -67.80639648 342.93725586 C-93.44928382 317.80547943 -108.89767164 283.5897014 -109.2956543 247.5456543 C-109.32481855 235.15584653 -108.99886195 223.35358961 -106.05419922 211.29052734 C-105.88259277 210.58428223 -105.71098633 209.87803711 -105.53417969 209.15039062 C-100.03968431 187.34426552 -89.8910865 168.20195285 -75.05419922 151.29052734 C-74.33619141 150.43974609 -73.61818359 149.58896484 -72.87841797 148.71240234 C-67.49129978 142.47367932 -61.60610252 137.27933372 -55.05419922 132.29052734 C-54.27560547 131.69626953 -53.49701172 131.10201172 -52.69482422 130.48974609 C-33.0684505 116.16512769 -10.95214311 108.06973708 12.94580078 104.29052734 C11.85525391 102.74558594 11.85525391 102.74558594 10.74267578 101.16943359 C10.2632251 100.49017822 9.78377441 99.81092285 9.28979492 99.11108398 C8.21098343 97.58283655 7.13204087 96.05468164 6.05297852 94.52661133 C3.34369007 90.68959478 0.63598127 86.85150149 -2.06591797 83.00927734 C-6.69601109 76.42959009 -11.34617509 69.86679758 -16.06738281 63.35205078 C-17.71064475 61.08340044 -19.34763385 58.81032978 -20.98388672 56.53662109 C-22.92337005 53.84329855 -24.88620731 51.17061532 -26.87451172 48.51318359 C-27.70567487 47.37678213 -28.53643266 46.24008403 -29.36669922 45.10302734 C-30.08470703 44.14009766 -30.80271484 43.17716797 -31.54248047 42.18505859 C-33.44209292 38.54781615 -33.58854306 36.34606008 -33.05419922 32.29052734 C-31.57763672 29.61474609 -31.57763672 29.61474609 -29.42919922 26.97802734 C-28.61966797 25.96353516 -27.81013672 24.94904297 -26.97607422 23.90380859 C-26.5178125 23.34129395 -26.05955078 22.7787793 -25.58740234 22.19921875 C-23.83720678 20.02039249 -22.13977379 17.80555537 -20.44482422 15.58349609 C-19.18986422 13.94398306 -17.93465635 12.30465973 -16.67919922 10.66552734 C-16.07253418 9.87106201 -15.46586914 9.07659668 -14.84082031 8.25805664 C-14.26412598 7.51338135 -13.68743164 6.76870605 -13.09326172 6.00146484 C-12.57973145 5.33421387 -12.06620117 4.66696289 -11.53710938 3.97949219 C-7.9943253 -0.05557206 -5.11535492 0.03016369 0 0 Z M-56.05419922 156.29052734 C-56.64587891 156.81775391 -57.23755859 157.34498047 -57.84716797 157.88818359 C-78.9228217 177.46200927 -91.26851584 207.89743321 -92.33544922 236.31787109 C-93.10354421 271.36753889 -81.83226612 302.84861159 -57.79296875 328.59667969 C-40.65064992 346.28130535 -18.00976304 358.05189306 5.94580078 363.29052734 C6.95384766 363.51611328 7.96189453 363.74169922 9.00048828 363.97412109 C40.41167 369.88921375 73.12356814 361.76125891 99.38720703 344.03271484 C102.3410647 341.8837545 105.1548417 339.64663445 107.94580078 337.29052734 C108.93837891 336.46037109 109.93095703 335.63021484 110.95361328 334.77490234 C133.71363425 315.15256478 149.63893557 285.42752196 151.94580078 255.29052734 C153.82310364 219.40325096 144.28290725 188.34357451 120.57080078 161.16552734 C99.7190994 138.66007034 71.67974144 123.17170951 40.68481445 121.06933594 C2.91143248 119.76880927 -28.3774327 130.23899409 -56.05419922 156.29052734 Z " fill="#000000" transform="translate(226.05419921875,64.70947265625)"/>
</svg>
